PathFileType	4	(X/Y/Z)	 marche_02.trc
DataRate	CameraRate	NumFrames	NumMarkers	Units	OrigDataRate	OrigDataStartFrame	OrigNumFrames
200	200	8	44	m	200	347	396
Frame#	Time	RCAL			RMT1			RIMAL			REMAL			RMT5			LCAL			LMT1			LIMAL			LEMAL			LMT5			RTTA			LTTA			RICE			RECE			RGT			RAT			LICE			LECE			LGT			LASIS			RASIS			RPSIS			LPSIS			OMP			L4			XYP			C7			STE			FRO			RTEMP			LTEMP			RACR			RLEC			RMEC			LACR			LLEC			LMEC			RLS			RRS			LLS			LRS			RFIN			LFIN			C_43			
		X1	Y1	Z1	X2	Y2	Z2	X3	Y3	Z3	X4	Y4	Z4	X5	Y5	Z5	X6	Y6	Z6	X7	Y7	Z7	X8	Y8	Z8	X9	Y9	Z9	X10	Y10	Z10	X11	Y11	Z11	X12	Y12	Z12	X13	Y13	Z13	X14	Y14	Z14	X15	Y15	Z15	X16	Y16	Z16	X17	Y17	Z17	X18	Y18	Z18	X19	Y19	Z19	X20	Y20	Z20	X21	Y21	Z21	X22	Y22	Z22	X23	Y23	Z23	X24	Y24	Z24	X25	Y25	Z25	X26	Y26	Z26	X27	Y27	Z27	X28	Y28	Z28	X29	Y29	Z29	X30	Y30	Z30	X31	Y31	Z31	X32	Y32	Z32	X33	Y33	Z33	X34	Y34	Z34	X35	Y35	Z35	X36	Y36	Z36	X37	Y37	Z37	X38	Y38	Z38	X39	Y39	Z39	X40	Y40	Z40	X41	Y41	Z41	X42	Y42	Z42	X43	Y43	Z43	X44	Y44	Z44	
347	1.7350	1.314866	0.082065	0.386554	1.525484	0.043461	0.406217	1.403349	0.115990	0.355503	1.367160	0.093715	0.453605	1.471361	0.036566	0.475187	1.813370	0.045283	0.287641	2.015250	0.090795	0.275385	1.881301	0.110841	0.319753	1.858880	0.080849	0.220588	1.983453	0.065528	0.205803	1.556632	0.366696	0.448928	1.880949	0.398271	0.256410	1.552089	0.462642	0.374524	1.549463	0.467030	0.506515	1.597131	0.826546	0.554171	1.701215	0.633677	0.494118	1.804145	0.461054	0.338281	1.813104	0.466847	0.194114	1.654460	0.834852	0.177852	1.719949	0.925357	0.240410	1.717033	0.920057	0.491759	1.513289	0.937502	0.396939	1.518240	0.925302	0.317213	1.792901	0.973531	0.371628	1.508681	1.184004	0.366574	1.750743	1.175321	0.356825	1.540861	1.368808	0.361158	1.716659	1.342477	0.354222	1.805626	1.581024	0.352761	1.750828	1.560062	0.430027	1.749019	1.546922	0.266426	1.644131	1.390270	0.535084	1.633505	1.085473	0.673175	1.621521	1.046663	0.582282	1.627168	1.366519	0.176442	1.510473	1.059212	0.095340	1.501959	1.045874	0.196065	1.827940	0.900165	0.668396	1.879416	0.947919	0.602403	1.526861	0.800869	0.069411	1.580277	0.793832	0.131074	1.930920	0.873298	0.670545	1.555780	0.715675	0.082591	0.000000	0.000000	0.000000	
348	1.7400	1.315543	0.084395	0.386579	1.525241	0.043148	0.405583	1.404901	0.116273	0.356189	1.368864	0.095029	0.453730	1.471706	0.036632	0.475118	1.826153	0.044275	0.287343	2.027279	0.092844	0.277253	1.892952	0.111179	0.319911	1.870932	0.080855	0.221194	1.996837	0.067560	0.207441	1.561221	0.366515	0.449057	1.888538	0.398513	0.256539	1.556711	0.462238	0.374636	1.553575	0.466853	0.506435	1.602402	0.826331	0.553596	1.706009	0.633030	0.494659	1.809344	0.458758	0.338501	1.819871	0.465885	0.194389	1.661497	0.834053	0.177713	1.727624	0.924872	0.240422	1.722891	0.919687	0.491729	1.519474	0.936963	0.395664	1.525216	0.925768	0.315096	1.799356	0.972711	0.372223	1.515049	1.183346	0.365681	1.757175	1.174542	0.356462	1.547449	1.368122	0.360581	1.722953	1.341762	0.353680	1.812080	1.580280	0.352157	1.757112	1.559157	0.429557	1.755491	1.546335	0.265885	1.650559	1.389520	0.534603	1.640521	1.084837	0.672768	1.628450	1.045860	0.581996	1.633918	1.365844	0.175780	1.514999	1.059378	0.094753	1.506629	1.046382	0.195722	1.836094	0.900597	0.667716	1.885360	0.948715	0.601995	1.530271	0.800868	0.068953	1.582891	0.793304	0.131138	1.939194	0.874547	0.669545	1.557188	0.714896	0.083272	0.000000	0.000000	0.000000	
349	1.7450	1.314660	0.088758	0.385836	1.524860	0.042297	0.404834	1.406559	0.116382	0.356495	1.370318	0.096354	0.453794	1.472005	0.036725	0.475105	1.839370	0.043537	0.288037	2.039534	0.094842	0.278958	1.904009	0.111447	0.320296	1.883074	0.080480	0.221764	2.010145	0.069521	0.208593	1.565101	0.366226	0.449144	1.895985	0.398608	0.256528	1.561830	0.461736	0.374773	1.557745	0.466745	0.506321	1.607763	0.825980	0.552958	1.711206	0.632644	0.495183	1.814766	0.456958	0.338845	1.826405	0.464629	0.194654	1.668862	0.833295	0.177181	1.735064	0.924493	0.240439	1.728609	0.918951	0.491761	1.525891	0.936159	0.394284	1.532303	0.926468	0.311625	1.805917	0.971842	0.372862	1.521534	1.182654	0.364870	1.763616	1.173833	0.356201	1.553928	1.367419	0.359848	1.729294	1.340921	0.353431	1.818367	1.579468	0.351526	1.763585	1.558378	0.428929	1.761930	1.545770	0.265314	1.656729	1.388638	0.533965	1.647416	1.084212	0.672402	1.635474	1.045067	0.581621	1.640686	1.365131	0.175335	1.520028	1.059622	0.094006	1.511203	1.046615	0.195212	1.844133	0.901229	0.667318	1.891557	0.949235	0.601664	1.533763	0.800764	0.068533	1.585993	0.792890	0.131171	1.947360	0.875857	0.668597	1.558876	0.714136	0.084088	0.000000	0.000000	0.000000	
350	1.7500	1.314079	0.092954	0.385299	1.524910	0.041489	0.404951	1.407902	0.117332	0.356934	1.371101	0.098144	0.453855	1.472393	0.036846	0.475181	1.851185	0.043325	0.289127	2.050572	0.096636	0.280558	1.914421	0.111630	0.320942	1.894892	0.080411	0.222334	2.021742	0.070816	0.210218	1.568564	0.365777	0.449407	1.903046	0.398484	0.256282	1.566828	0.461249	0.374650	1.562203	0.466620	0.506404	1.613441	0.825591	0.552275	1.716500	0.632209	0.495672	1.820790	0.455635	0.339335	1.832992	0.463518	0.195012	1.676232	0.832606	0.176670	1.742114	0.924114	0.240697	1.734464	0.918151	0.492026	1.532744	0.935173	0.393154	1.538815	0.926316	0.309115	1.812505	0.971173	0.373350	1.528051	1.181759	0.364046	1.770133	1.173033	0.355723	1.560471	1.366632	0.358939	1.735924	1.340247	0.352806	1.824848	1.578822	0.350966	1.770154	1.557878	0.428503	1.768385	1.545087	0.264813	1.663043	1.387828	0.533192	1.653714	1.082976	0.672424	1.642241	1.044246	0.581159	1.647522	1.364483	0.174637	1.525239	1.059950	0.093198	1.516310	1.046880	0.194467	1.852317	0.902212	0.666125	1.899844	0.949749	0.602219	1.537419	0.800672	0.068197	1.589528	0.792693	0.131191	1.955516	0.876944	0.667756	1.561049	0.713633	0.084864	0.000000	0.000000	0.000000	
351	1.7550	1.315047	0.095668	0.386092	1.525394	0.041197	0.405696	1.408779	0.118859	0.357174	1.371307	0.099887	0.453865	1.473091	0.036910	0.475294	1.861580	0.042741	0.289935	2.060612	0.097907	0.281865	1.924333	0.111746	0.321805	1.905707	0.080386	0.223146	2.032383	0.072023	0.211718	1.572422	0.365630	0.449803	1.909907	0.398302	0.256152	1.572272	0.460666	0.374644	1.566612	0.466557	0.506460	1.618978	0.825112	0.551520	1.721820	0.631591	0.495996	1.827009	0.454641	0.339764	1.839214	0.462133	0.195293	1.683638	0.831609	0.176141	1.749165	0.923512	0.240645	1.740401	0.917544	0.491891	1.539630	0.934093	0.391914	1.545864	0.925311	0.308129	1.819085	0.970323	0.373761	1.534742	1.181005	0.362977	1.776651	1.172164	0.355327	1.566940	1.366009	0.358151	1.742537	1.339513	0.352220	1.831224	1.578305	0.350436	1.776561	1.557313	0.427926	1.774718	1.544171	0.264491	1.669328	1.387157	0.532644	1.660633	1.082719	0.671427	1.649187	1.043556	0.580723	1.654262	1.364056	0.173908	1.530416	1.060064	0.092488	1.521333	1.046954	0.193644	1.859619	0.902280	0.665656	1.908301	0.950390	0.601488	1.541522	0.800605	0.067732	1.595143	0.793138	0.128833	1.963138	0.877776	0.666817	1.563528	0.713198	0.085594	0.000000	0.000000	0.000000	
352	1.7600	1.316844	0.097102	0.386949	1.526254	0.041547	0.406507	1.409893	0.120093	0.357479	1.371664	0.101431	0.454054	1.473386	0.037218	0.475176	1.871512	0.041962	0.290310	2.070044	0.098905	0.283207	1.934036	0.111960	0.322682	1.915568	0.080076	0.224108	2.042501	0.072910	0.213061	1.576288	0.365359	0.449931	1.916849	0.397698	0.256300	1.577147	0.460192	0.374717	1.571187	0.466413	0.506574	1.624653	0.824719	0.550852	1.727188	0.630723	0.496484	1.833346	0.453862	0.340166	1.845712	0.461130	0.195453	1.691116	0.830731	0.175459	1.756652	0.923219	0.239955	1.746492	0.916999	0.491733	1.545878	0.933295	0.390948	1.552717	0.924056	0.307258	1.825540	0.969646	0.374117	1.541211	1.180265	0.362036	1.783302	1.171677	0.355049	1.573373	1.365264	0.357397	1.748952	1.338794	0.351763	1.837640	1.577697	0.349893	1.783044	1.556607	0.427384	1.781198	1.543404	0.263823	1.675714	1.386483	0.532069	1.667131	1.081945	0.671332	1.655872	1.042934	0.580196	1.660986	1.363311	0.173296	1.535861	1.060183	0.091749	1.526480	1.047239	0.192968	1.867409	0.902912	0.664713	1.915659	0.951120	0.600751	1.545724	0.800498	0.067361	1.600433	0.793542	0.127496	1.970869	0.878460	0.665955	1.566448	0.712758	0.086329	0.000000	0.000000	0.000000	
353	1.7650	1.318530	0.098270	0.387240	1.526850	0.042191	0.406937	1.411255	0.121110	0.357840	1.372503	0.102968	0.454251	1.473606	0.037318	0.474971	1.880944	0.041141	0.290381	2.079098	0.099520	0.284461	1.942932	0.111863	0.323705	1.924978	0.079612	0.225226	2.051941	0.073490	0.214325	1.580529	0.364729	0.450222	1.923426	0.397373	0.256370	1.582629	0.459954	0.374904	1.576182	0.466444	0.506665	1.630330	0.824363	0.550207	1.732592	0.630299	0.496692	1.839593	0.453547	0.340367	1.852406	0.460192	0.196010	1.698637	0.830055	0.174834	1.763583	0.922743	0.239942	1.752741	0.916528	0.491895	1.553122	0.932534	0.389540	1.559769	0.923000	0.306128	1.832007	0.969137	0.374364	1.547856	1.179784	0.360941	1.790149	1.171263	0.354547	1.580082	1.364674	0.356656	1.755713	1.338216	0.351068	1.844147	1.576871	0.349223	1.789761	1.555961	0.426945	1.787381	1.542825	0.263323	1.682067	1.385811	0.531386	1.673594	1.081279	0.670902	1.662675	1.042242	0.579615	1.667970	1.362717	0.172385	1.540817	1.059906	0.091310	1.531555	1.047622	0.192284	1.874934	0.903340	0.663914	1.922438	0.951583	0.599922	1.549838	0.800294	0.066979	1.604506	0.793527	0.127497	1.978343	0.879392	0.665185	1.570033	0.712292	0.086919	0.000000	0.000000	0.000000	
354	1.7700	1.319298	0.101335	0.387247	1.527306	0.043907	0.406972	1.412547	0.122289	0.358191	1.373560	0.104699	0.454352	1.473840	0.037005	0.474521	1.889911	0.040357	0.291221	2.087720	0.099964	0.285528	1.951344	0.111019	0.325354	1.934036	0.078957	0.227060	2.061040	0.073600	0.216164	1.584312	0.364173	0.450199	1.930165	0.396806	0.256912	1.587933	0.459579	0.374987	1.581302	0.466488	0.506687	1.636171	0.824240	0.549375	1.738251	0.629840	0.496794	1.845807	0.452934	0.340828	1.858970	0.459286	0.196439	1.706819	0.829340	0.174508	1.770873	0.922247	0.239798	1.759000	0.916032	0.491745	1.560515	0.931514	0.388247	1.566924	0.922123	0.304883	1.838961	0.968712	0.374573	1.554350	1.178964	0.360018	1.796777	1.170486	0.354174	1.586599	1.363867	0.355887	1.762172	1.337591	0.350567	1.850620	1.576265	0.348630	1.796057	1.555227	0.426130	1.793687	1.542378	0.262769	1.688314	1.385015	0.530715	1.680112	1.080787	0.670302	1.669339	1.041684	0.578908	1.674768	1.362049	0.171824	1.546407	1.059913	0.090497	1.536763	1.048158	0.191327	1.882058	0.903442	0.663076	1.929156	0.951867	0.598917	1.554551	0.800049	0.066386	1.608207	0.793211	0.127702	1.985748	0.880066	0.664125	1.573550	0.711924	0.087624	0.000000	0.000000	0.000000	
